# xmcd
# Copyright (C) 1995-1998 Ti Kan
#
# Track frame offsets:
#       183
#       20935
#       38443
#       59235
#       71635
#       81538
#       104628
#       118580
#       133868
#       151203
#       163950
#       183458
#       192208
#
# Disc length: 2779 seconds
#
# Revision: 0
# Processed by: cddbd v1.5.2PL0 Copyright (c) Steve Scherf et al.
# Submitted via: CD-Import v1.0
#
DISCID=c50ad90d
DTITLE=Fischer-Z - Red Skies Over Paradise
DYEAR=1981
DGENRE=
TTITLE0=Berlin
TTITLE1=Marliese
TTITLE2=Red Skies Over Paradise
TTITLE3=In England
TTITLE4=You'll Never Find Brian Here
TTITLE5=Battalions Of Strangers
TTITLE6=Song And Dance Brigade
TTITLE7=The Writer
TTITLE8=Bathroom Scenario
TTITLE9=Wristcutter's Lullaby
TTITLE10=Cruise Missiles
TTITLE11=Luton To Lisbon
TTITLE12=Multinationals Bite
EXTD=
EXTT0=
EXTT1=
EXTT2=
EXTT3=
EXTT4=
EXTT5=
EXTT6=
EXTT7=
EXTT8=
EXTT9=
EXTT10=
EXTT11=
EXTT12=
PLAYORDER=
